<svg xmlns="http://www.w3.org/2000/svg" xmlns:xlink="http://www.w3.org/1999/xlink" version="1.1" x="0px" y="0px" viewBox="0 0 100 125" enable-background="new 0 0 100 100" xml:space="preserve"><path d="M57.226,24.577H44.67c-0.455,0-0.87-0.421-1.123-0.799s-0.308-1.041-0.115-1.513l5.9-15.993  c0.532-1.442,2.571-1.446,3.108-0.006l6.027,16.144c0.175,0.421,0.129,0.984-0.124,1.364S57.682,24.577,57.226,24.577z   M69.139,85.501H31.861c-2.485,0-4.5,2.015-4.5,4.5v0.686c0,2.485,2.015,4.5,4.5,4.5h37.278c2.485,0,4.5-2.015,4.5-4.5v-0.686  C73.639,87.516,71.624,85.501,69.139,85.501z M66.644,73.663H34.356c-2.675,0-4.843,2.168-4.843,4.843v0  c0,2.675,2.168,4.843,4.843,4.843h32.287c2.675,0,4.843-2.168,4.843-4.843v0C71.487,75.831,69.318,73.663,66.644,73.663z   M64.491,61.824H36.509c-2.675,0-4.843,2.168-4.843,4.843v0c0,2.675,2.168,4.843,4.843,4.843h27.982  c2.675,0,4.843-2.168,4.843-4.843v0C69.334,63.993,67.166,61.824,64.491,61.824z M62.339,49.986H39.738  c-2.675,0-4.843,2.168-4.843,4.843v0c0,2.675,2.168,4.843,4.843,4.843h22.601c2.675,0,4.843-2.168,4.843-4.843v0  C67.182,52.154,65.013,49.986,62.339,49.986z M59.11,38.147H41.89c-2.675,0-4.843,2.168-4.843,4.843v0  c0,2.675,2.168,4.843,4.843,4.843h17.22c2.675,0,4.843-2.168,4.843-4.843v0C63.953,40.315,61.785,38.147,59.11,38.147z M57.3,26.309  H43.7c-2.485,0-4.5,2.015-4.5,4.5v0.686c0,2.485,2.015,4.5,4.5,4.5H57.3c2.485,0,4.5-2.015,4.5-4.5v-0.686  C61.8,28.323,59.786,26.309,57.3,26.309z"/><text x="0" y="115" fill="#000000" font-size="5px" font-weight="bold" font-family="'Helvetica Neue', Helvetica, Arial-Unicode, Arial, Sans-serif">Created by Laymik</text><text x="0" y="120" fill="#000000" font-size="5px" font-weight="bold" font-family="'Helvetica Neue', Helvetica, Arial-Unicode, Arial, Sans-serif">from the Noun Project</text></svg>